<svg width="361" height="240" viewBox="0 0 361 240" fill="none" xmlns="http://www.w3.org/2000/svg">
    <path d="M184.57 91.883c-2.624 2.354-10.192 4.6-10.198 4.601-.007 0-.024-5.516.018-5.865.503-4.034 3.814-11.5 8.25-12.289 3.189-.565 5.909 1.996 6.194 5.141.286 3.146-2.029 6.389-4.264 8.412Z"
          fill="#EEEFF5"/>
    <path d="m175.064 193.018.068.541-2.453 2.035-.285-2.258a276.823 276.823 0 0 1-.766-6.914 57.183 57.183 0 0 1-6.766-.904c-1.4 3.112-6.083 7.742-6.692 8.336a264.484 264.484 0 0 0 4.067 4.757 575.189 575.189 0 0 0 2.627 2.951l-2.836.911a147.146 147.146 0 0 1-1.793-2.11c-1.443-1.675-2.906-3.505-4.406-5.393-.747.429-6.898 3.91-10.188 4.193-2.992.262-6.887-.253-9.049-2.646-2.161-2.392-2.132-6.071.463-8.009 3.602-2.697 11.325-.011 14.614 2.383.196.14 2.137 1.908 3.346 3.043-.609-.773-1.214-1.521-1.833-2.324-1.235-1.587-2.418-3.205-3.702-4.937l-1.793-2.603c-.614-.859-1.156-1.839-1.748-2.77-1.327-2.176-2.561-4.444-3.758-6.753-1.355 1.073-6.237 4.802-9.159 5.517-2.922.715-6.83.782-9.32-1.236s-3.015-5.69-.747-8.027c3.148-3.219 11.169-1.741 14.797.122.229.111 2.684 1.746 3.994 2.663-.712-1.398-1.423-2.789-2.096-4.222-1.94-4.147-3.774-8.392-5.625-12.624-.574-1.295-1.148-2.585-1.72-3.872-.475.385-6.152 4.948-9.457 5.751-2.914.72-6.836.782-9.32-1.236s-3.014-5.69-.747-8.027c3.148-3.219 11.169-1.741 14.797.122.271.143 3.782 2.494 4.646 3.137-1.27-2.844-2.561-5.66-3.94-8.385A96.348 96.348 0 0 0 122 133.61c-.224.175-6.149 4.966-9.507 5.787-2.915.715-6.836.783-9.326-1.235-2.49-2.017-3.014-5.689-.747-8.027 3.148-3.219 11.169-1.74 14.797.122.278.149 4.031 2.659 4.715 3.205-.129-.198-.249-.415-.381-.581a71.214 71.214 0 0 0-8.042-9.42 63.63 63.63 0 0 0-4.87-4.435c-1.012 1.008-5.686 5.562-8.623 6.641-2.814 1.034-6.696 1.559-9.384-.174-2.688-1.732-3.61-5.328-1.61-7.884 2.78-3.557 10.896-2.976 14.677-1.518.207.076 2.21 1.113 3.663 1.889-.737-.614-1.489-1.258-2.202-1.832-2.696-2.188-5.28-3.976-7.587-5.565a186.837 186.837 0 0 0-3.67-2.389c-1.508.454-7.623 2.221-10.686 1.81-3.064-.41-6.691-1.73-8.303-4.547-1.611-2.817-.803-6.373 2.159-7.699 4.08-1.833 11.096 2.475 13.812 5.502.237.267 3.444 4.798 3.367 4.826l-.09.01c1.105.666 2.288 1.398 3.569 2.225 2.343 1.542 4.979 3.299 7.721 5.413a96.116 96.116 0 0 1 8.537 7.235 70.994 70.994 0 0 1 8.343 9.361l.084.128c-.443-1.266-1.553-4.846-1.608-5.133-.77-4.006.061-12.176 4.009-14.326 2.838-1.573 6.201.039 7.425 2.957 1.223 2.918.077 6.675-1.441 9.295-1.684 2.957-7.652 7.21-8.126 7.551a97.48 97.48 0 0 1 6.682 10.899 175.056 175.056 0 0 1 3.371 6.71c-.343-1.109-.647-2.104-.671-2.245-.77-4.006.061-12.176 4.009-14.325 2.838-1.574 6.201.039 7.425 2.956 1.224 2.918.086 6.743-1.432 9.363-1.517 2.62-6.533 6.364-7.874 7.36.413.877.835 1.739 1.236 2.617 1.939 4.197 3.86 8.395 5.878 12.433.703 1.429 1.45 2.81 2.198 4.198a50.83 50.83 0 0 1-.584-1.943c-.769-4.006.061-12.176 4.009-14.326 2.842-1.542 6.201.039 7.425 2.957 1.224 2.918.095 6.767-1.423 9.387-1.517 2.62-6.015 6.024-7.631 7.183.793 1.4 1.585 2.801 2.443 4.088.592.887 1.106 1.783 1.75 2.646.645.862 1.241 1.73 1.845 2.566 1.235 1.587 2.495 3.234 3.734 4.752.854 1.063 1.688 2.059 2.524 3.068-.722-1.421-2.078-4.218-2.165-4.47a21.285 21.285 0 0 1-.547-10.546 6.506 6.506 0 0 1-.301-1.164c-.503-3.113 1.516-6.202 4.743-6.353 4.5-.216 9.536 6.316 11.002 10.13.089.22.761 2.765 1.166 4.372-.086-.976-.188-1.932-.271-2.94-.172-1.996-.295-3.997-.43-6.147-.026-1.039-.054-2.091-.083-3.149-.028-1.057.029-2.168.033-3.261.078-2.505.269-5.098.522-7.68-1.726.129-7.871.49-10.724-.55-2.854-1.04-6.193-3.154-7.178-6.224-.984-3.07.569-6.387 3.74-7.031 4.407-.904 10.36 4.792 12.378 8.343.126.223 1.293 2.935 1.907 4.431.162-1.547.318-3.094.535-4.648.627-4.509 1.398-9.04 2.146-13.569.231-1.387.445-2.772.664-4.164-.608.07-7.926.645-11.104-.526-2.84-1.035-6.192-3.148-7.177-6.224-.985-3.076.569-6.381 3.745-7.031 4.402-.898 10.354 4.793 12.373 8.35.15.263 1.824 4.159 2.205 5.183.477-3.057.931-6.104 1.252-9.124.459-4.08.653-8.19.581-12.304-.285.033-7.922.676-11.153-.527-2.846-1.035-6.192-3.148-7.177-6.224-.985-3.076.563-6.38 3.739-7.031 4.408-.897 10.354 4.794 12.373 8.351.164.274 1.962 4.474 2.233 5.261-.029-.234.013-.489.008-.725a70.73 70.73 0 0 0-1.636-12.294c-.467-2.237-1.041-4.35-1.643-6.39-1.401.267-7.828 1.42-10.884.672-2.936-.712-6.468-2.448-7.794-5.398-1.327-2.95-.132-6.42 2.946-7.414 4.278-1.389 10.797 3.619 13.191 6.933.128.18 1.251 2.154 2.05 3.61-.288-.922-.562-1.877-.851-2.749-1.085-3.283-2.275-6.23-3.354-8.827a136.483 136.483 0 0 0-1.783-4.027c-1.522-.45-7.633-2.415-9.987-4.473-2.353-2.058-4.687-5.18-4.513-8.395.174-3.215 2.805-5.65 6.015-5.107 4.458.775 8.002 8.227 8.634 12.26.043.345.279 5.885.203 5.862l-.096-.026a137.679 137.679 0 0 1 1.794 3.826c1.132 2.579 2.387 5.505 3.57 8.784a97.687 97.687 0 0 1 3.25 10.736 71.706 71.706 0 0 1 1.913 12.393l.019.148c.324-1.286 1.338-4.871 1.444-5.158 1.537-3.739 6.695-10.021 11.189-9.594 3.236.31 5.201 3.493 4.643 6.589-.558 3.097-3.605 5.605-6.304 6.963-3.033 1.495-10.382 1.681-10.966 1.692a96.394 96.394 0 0 1-.315 12.742 172.181 172.181 0 0 1-.821 7.42c.316-1.109.604-2.097.656-2.228 1.536-3.739 6.694-10.027 11.189-9.593 3.242.309 5.201 3.492 4.642 6.583-.559 3.091-3.604 5.611-6.304 6.962s-8.981 1.652-10.646 1.687c-.127.951-.253 1.901-.386 2.846-.658 4.556-1.318 9.094-1.85 13.573-.183 1.575-.304 3.155-.437 4.693.277-.98.517-1.806.569-1.937 1.536-3.739 6.694-10.021 11.189-9.594 3.236.31 5.201 3.493 4.643 6.589-.558 3.097-3.605 5.605-6.304 6.963-2.699 1.357-8.38 1.583-10.346 1.671-.087 1.608-.174 3.215-.188 4.771.018 1.065-.044 2.089.035 3.16.08 1.07.1 2.11.151 3.146.172 2.003.333 4.062.547 6.01.171 1.353.297 2.643.454 3.942.165-1.573.554-4.644.615-4.895.957-3.941 5.105-10.956 9.598-11.221 3.241-.19 5.652 2.667 5.562 5.816-.09 3.15-2.728 6.11-5.171 7.838-2.699 1.9-9.631 3.193-10.498 3.348.209 2.104.485 4.195.806 6.155Z"
          fill="#EEEFF5"/>
    <path d="M108.55 118.421c-.054.063-3.038-4.634-3.175-4.942-1.781-3.664-3.11-11.784.112-14.912 2.319-2.253 5.935-1.615 7.882.878 1.946 2.492 1.818 6.499 1.07 9.432-.882 3.433-5.884 9.538-5.889 9.544Z"
          fill="#EEEFF5"/>
    <g clip-path="url(#a)">
        <path d="m240.926 205.206-3.71 27.618-3.144 58.275s9.595 9.326 15.067 15.548c5.472 6.221 17.962 27.913 17.962 27.913s-.99 5.432-7.126 9.13c-6.136 3.697-9.465 3.127-9.465 3.127l-4.428-7.78-1.588-3.511s-35.781-34.75-36.467-39.248c-.685-4.499-4.232-53.129-4.232-53.129l-27.97 41.388s-3.437 27.289-6.157 33.872c-2.72 6.583-14.056 27.991-14.056 27.991l-1.371 4.828a8.9 8.9 0 0 1-8.561-1.723 38.581 38.581 0 0 1-6.191-7.461l3.797-4.631.686-3.116s9.247-55.63 11.303-62.192c2.056-6.561 27.121-63.421 27.121-63.421l5.44-15.196s5.135 3.445 20.899 8.284c15.763 4.839 32.191 3.434 32.191 3.434Z"
              fill="#B6B6B8" stroke="#373745" stroke-width=".7" stroke-linejoin="round"/>
        <path d="M206.037 211.087c-11.489-5.288-16.917-10.566-19.452-14.022l1.295-3.599s5.134 3.445 20.898 8.284c14.143 4.323 28.71 3.687 31.658 3.5l.533.077-1.012 7.384a43.69 43.69 0 0 1-17.121 2.62 43.734 43.734 0 0 1-16.799-4.244Z"
              fill="#50673B" stroke="#373745" stroke-width=".7" stroke-linejoin="round"/>
        <path d="M246.974 124.438 272.5 144l-29.116 58.441a8.62 8.62 0 0 1-3.089 5.486c-2.829 2.337-21.323 1.822-28.003-.252a114.164 114.164 0 0 1-19.789-9.074c-2.829-1.811-6.68-5.706-5.646-9.074a28.882 28.882 0 0 1 2.817-6.211l5.44-15.811s-21.323 1.295-24.152 1.295c-2.828 0-12.587-24.875-12.587-24.875s2.829-.263 3.852-2.074a17.524 17.524 0 0 0 1.457-3.939C164.5 141.851 167.5 146 170 151c2.038 3 4 6.5 6.5 7.5 4.5 1.8 9.163-10.966 10.357-11.5.209-1.897 3.082-8.278 5.669-11.9 2.202-3.082 3.271-5.104 5.132-6.733 4.817-4.219 7.983-5.862 12.842-6.367 3.756-.39 19.47.847 21.788.847 2.317 0 14.686 1.591 14.686 1.591Z"
              fill="#8FA43B"/>
        <path d="M170 151c-2.5-5-5.5-9.149-6.316-13.088a17.524 17.524 0 0 1-1.457 3.939c-1.023 1.811-3.852 2.074-3.852 2.074s9.759 24.875 12.587 24.875c2.829 0 24.152-1.295 24.152-1.295l-5.44 15.811a28.882 28.882 0 0 0-2.817 6.211c-1.034 3.368 2.817 7.263 5.646 9.074a114.164 114.164 0 0 0 19.789 9.074c6.68 2.074 25.174 2.589 28.003.252a8.62 8.62 0 0 0 3.089-5.486L272.5 144l-25.526-19.562s-12.369-1.591-14.686-1.591c-2.318 0-18.032-1.237-21.788-.847-4.859.505-8.025 2.148-12.842 6.367-1.861 1.629-2.93 3.651-5.132 6.733-2.587 3.622-5.46 10.003-5.669 11.9-1.194.534-5.857 13.3-10.357 11.5M170 151c2.038 3 4 6.5 6.5 7.5M170 151l6.5 7.5"
              stroke="#373745" stroke-width=".7" stroke-linejoin="round"/>
        <path d="M162.183 141.807a17.077 17.077 0 0 0 1.501-3.785l.805.932s4.113 3.106 3.079 7.517c-.642 2.754-3.797 3.686-6.582 3.928-1.566-3.72-2.665-6.518-2.665-6.518s2.839-.263 3.862-2.074Z"
              fill="#50673B" stroke="#373745" stroke-width=".7" stroke-linejoin="round"/>
        <path d="m195.07 167.461 8.43-21.961" stroke="#373745" stroke-width=".7" stroke-linejoin="round"/>
        <path d="M220.013 198.864a10.184 10.184 0 0 0 2.525-3.153 10.264 10.264 0 0 0 .622-7.92 10.204 10.204 0 0 0-2.002-3.515l-73.486-85.044-11.231 9.376 69.146 88.664a10.136 10.136 0 0 0 3.051 2.639 10.031 10.031 0 0 0 7.83.864 10.073 10.073 0 0 0 3.545-1.911Z"
              fill="#373745" stroke="#373745" stroke-width=".7" stroke-linejoin="round"/>
        <path d="M258 147.5s5-9.5 14.5-3.5c1 .632 2.136 11.525 2.5 19 .794 16.329-3.824 40.243-5.5 41.5-2 1.5-50.017-6.722-50.017-6.722L218.199 189H256s-3.285-7.675-4-13c-.756-5.629.631-14.5.631-14.5"
              fill="#8FA43B"/>
        <path d="M258 147.5s5-9.5 14.5-3.5c1 .632 2.136 11.525 2.5 19 .794 16.329-3.824 40.243-5.5 41.5-2 1.5-50.017-6.722-50.017-6.722L218.199 189H256s-3.285-7.675-4-13c-.756-5.629.631-14.5.631-14.5"
              stroke="#373745" stroke-width=".7" stroke-linejoin="round"/>
        <path d="m167.962 122.565 53.413 62.037a10.188 10.188 0 0 1 1.857 3.479 10.242 10.242 0 0 1-.716 7.724 10.094 10.094 0 0 1-2.464 3.069 9.968 9.968 0 0 1-3.436 1.88 9.91 9.91 0 0 1-7.63-.725 10.041 10.041 0 0 1-3.031-2.494l-50.512-65.02 12.519-9.95Z"
              fill="#fff" stroke="#373745" stroke-width=".7" stroke-linejoin="round"/>
        <path d="M87.375 37.37c6.973-5.889 15.502-9.536 24.509-10.482a45.037 45.037 0 0 1 26.091 5.166c8.004 4.315 14.573 10.952 18.877 19.073a47.433 47.433 0 0 1 5.3 26.55c-.848 9.19-4.351 17.917-10.064 25.077-5.714 7.161-13.382 12.433-22.036 15.15a44.935 44.935 0 0 1-26.578.116c-8.675-2.642-16.388-7.847-22.161-14.957-7.74-9.532-11.45-21.807-10.313-34.127 1.137-12.319 7.027-23.673 16.375-31.567Zm54.184 66.701c5.968-5.037 10.337-11.765 12.554-19.333a40.663 40.663 0 0 0-.098-23.185c-2.281-7.549-6.706-14.238-12.717-19.222-6.01-4.985-13.336-8.04-21.05-8.78a38.548 38.548 0 0 0-22.287 4.62c-6.818 3.754-12.39 9.484-16.013 16.465a40.595 40.595 0 0 0-4.341 22.76c.792 7.856 3.853 15.297 8.794 21.381a39.338 39.338 0 0 0 11.857 9.834 38.644 38.644 0 0 0 14.646 4.459 38.481 38.481 0 0 0 15.206-1.594 38.938 38.938 0 0 0 13.449-7.405Z"
              fill="#373745" stroke="#373745" stroke-width=".7" stroke-linejoin="round"/>
        <path d="m158.332 143.881-9.791-15.548s-3.59-7-4.624-8.295c-1.033-1.295-5.135-2.853-1.795-2.853s4.352 2.074 4.352 2.074v-5.486c0-1.558 0-5.41 2.045-5.146 2.045.263 1.316 3.291 1.708 6.254.174 1.306 1.643 7.22 1.643 7.22l2.175-8.723c.099-.424.348-.797.701-1.048a1.751 1.751 0 0 1 1.214-.313c.424.066.751.263.751.746a70.39 70.39 0 0 1-1.284 7.001l.794 4.389s1.088-6.858 2.666-8.68c.696-.801 1.914.681 1.403 1.975-.511 1.295-.751 8.581-.751 8.581l.261 3.105s1.795-3.105 2.818-4.663c1.023-1.558 2.578-.779 1.806 1.558-.772 2.337-2.567 6.221-2.567 6.221l1.827 5.662s2.872 8.811-5.352 5.969Z"
              fill="#fff" stroke="#373745" stroke-width=".7" stroke-linejoin="round"/>
        <path d="m146.517 119.259 1.795 5.179" stroke="#373745" stroke-width=".7" stroke-linejoin="round"/>
        <path d="m223.5 189 1 9.5-5.017-.7-1.284-8.778L223.5 189Z" fill="#50673B" stroke="#373745" stroke-width=".7"
              stroke-linejoin="round"/>
        <path d="M218.5 189.298s-7.492-9.691-10.581-9.691c-3.09 0-7.703.264-8.704.264-1.001 0-3.34-.527-2.056 1.295 1.284 1.821 5.657 1.547 5.657 1.547l-5.722 3.149a2.918 2.918 0 0 0-1.491 2.109 2.951 2.951 0 0 0 .751 2.477c1.295 1.295 4.635 1.295 4.635 1.295s3.59 5.958 5.907 6.474c2.317.515 12.604-.717 12.604-.717l-1-8.202Z"
              fill="#fff" stroke="#373745" stroke-width=".7" stroke-linejoin="round"/>
        <path d="m224 141.5-.438-17.04 6.561-2.206-1.088 6.836L224 141.5Z" fill="#50673B" stroke="#373745"
              stroke-width=".7" stroke-linejoin="round"/>
        <path d="m223.563 124.46-4.809 9.93 5.037-.45-.228-9.48Z" fill="#50673B" stroke="#373745" stroke-width=".7"
              stroke-linejoin="round"/>
        <path d="M220.505 111.457c2.176.659 7.442 13.453 7.442 13.453l-3.721 16.535 5.896-8.383 1.621-8.054 13.904-5.837-.218-9.261a31.145 31.145 0 0 0 3.634-2.326 22.944 22.944 0 0 0 6.212-6.496c3.057-5.288 7.43-13.44.653-22.263-6.528-8.514-13.295-9.019-20.671-9.447h-.805s-8.529 5.3-8.703 7.944c-.174 2.644-1.316 6.397-3.721 7.933-2.404 1.536-5.678-.22-5.678 3.084a7.894 7.894 0 0 0 2.632 5.486s-2.175 10.149-3.263 13.452c-1.088 3.303 2.6 3.511 4.786 4.18Z"
              fill="#fff" stroke="#373745" stroke-width=".7" stroke-linejoin="round"/>
        <path d="M225.444 85.162c-.974 1.422-1.199 2.934-.487 3.366.712.432 2.043-.36 2.999-1.8s1.199-2.935.506-3.367c-.694-.432-2.043.378-3.018 1.8Z"
              fill="#373745"/>
        <path d="M232.098 83.757s-.217-3.753-3.71-3.753m-8.461 19.756s.97 1.087 4.065.719" stroke="#373745"
              stroke-width=".7" stroke-linecap="round" stroke-linejoin="round"/>
        <path d="M236.465 77.278c-1.969 1.975 5.255 6.825 6.342 9.041 1.088 2.217-.881 5.728-1.087 7.275-.207 1.547 5.015 5.947 5.015 5.947l1.98 1.986-1.534 6.178s.696 0 1.882-.121a22.944 22.944 0 0 0 6.212-6.496c3.057-5.288 7.43-13.44.653-22.263-6.528-8.514-13.295-9.019-20.671-9.447 1.273.867 2.883 1.25 3.797 2.195 1.349 1.283-.62 3.708-2.589 5.705Z"
              fill="#373745" stroke="#373745" stroke-width=".7" stroke-linejoin="round"/>
        <path d="M244.113 100.43s3.264-5.07 7.224-2.194c3.96 2.874-3.264 9.48-4.591 10.577-1.327 1.097-5.44-3.083-5.44-3.083a10.008 10.008 0 0 1-2.844 2.76 9.921 9.921 0 0 1-3.683 1.431"
              fill="#fff"/>
        <path d="M244.113 100.43s3.264-5.07 7.224-2.194c3.96 2.874-3.264 9.48-4.591 10.577-1.327 1.097-5.44-3.083-5.44-3.083a10.008 10.008 0 0 1-2.844 2.76 9.921 9.921 0 0 1-3.683 1.431"
              stroke="#373745" stroke-width=".7" stroke-linecap="round" stroke-linejoin="round"/>
        <path d="M240.186 73.306s9.399 10.589 11.804 15.438a81.03 81.03 0 0 1 4.155 10.578s4.809-.439 7.616-3.522c2.807-3.084-.218-15.22-5.679-21.166a44.384 44.384 0 0 0-11.815-9.041s6.995.219 4.352-1.767c-2.644-1.986-9.182-2.864-13.555-.658a4.654 4.654 0 0 0-1.551 1 4.69 4.69 0 0 0-1.045 1.527 4.744 4.744 0 0 0-.026 3.64l5.744 3.971Z"
              fill="#373745" stroke="#373745" stroke-width=".7" stroke-linejoin="round"/>
        <path d="m246.963 117.844 4.504 9.644-17.624 10.205-2.981-13.343 16.101-6.506Z" fill="#50673B" stroke="#373745"
              stroke-width=".7" stroke-linejoin="round"/>
    </g>
    <path d="M60.5 220h240" stroke="#67676F" stroke-linecap="round" stroke-linejoin="round"/>
    <defs>
        <clipPath id="a">
            <path fill="#fff" d="M275.5 18h-244v202h244z"/>
        </clipPath>
    </defs>
</svg>
