<svg width="361" height="240" viewBox="0 0 361 240" fill="none" xmlns="http://www.w3.org/2000/svg">
    <path d="M155.388 148.452c-2.459 1.053-8.324.886-8.328.885-.004-.001 1.471-3.894 1.595-4.13 1.437-2.728 5.751-7.225 9.047-6.755 2.368.339 3.568 2.773 2.918 5.056-.65 2.283-3.133 4.034-5.232 4.944Z" fill="#EEEFF5"/>
    <path d="m122.18 216.526-.098.397-2.253.867.411-1.657c.396-1.598.851-3.302 1.331-5.049a39.791 39.791 0 0 1-4.455-2.201c-1.812 1.869-6.312 4.05-6.894 4.327a181.935 181.935 0 0 0 1.542 4.293c.352.932.696 1.825 1.029 2.686l-2.215-.013c-.227-.617-.45-1.247-.677-1.901-.551-1.515-1.073-3.142-1.607-4.819-.634.13-5.844 1.161-8.206.6-2.148-.507-4.715-1.771-5.571-3.956-.857-2.186.155-4.771 2.48-5.537 3.228-1.068 7.868 2.61 9.507 5.057.099.144.971 1.839 1.504 2.918-.214-.686-.433-1.353-.646-2.062-.43-1.403-.816-2.817-1.241-4.334l-.544-2.249c-.195-.747-.307-1.563-.467-2.356-.336-1.84-.582-3.723-.79-5.627-1.231.443-5.627 1.942-7.848 1.771-2.222-.172-4.955-1.028-6.14-3.025-1.186-1.998-.561-4.706 1.644-5.83 3.054-1.54 8.226 1.356 10.244 3.507.13.131 1.394 1.85 2.057 2.799-.118-1.149-.237-2.294-.319-3.459-.229-3.37-.359-6.786-.504-10.196l-.151-3.126c-.434.162-5.606 2.065-8.118 1.867-2.218-.166-4.959-1.029-6.14-3.025-1.181-1.997-.56-4.706 1.645-5.829 3.054-1.541 8.226 1.355 10.244 3.506.149.164 1.954 2.631 2.381 3.284-.116-2.297-.254-4.58-.476-6.819a69.41 69.41 0 0 0-1.503-8.936c-.203.072-5.609 2.078-8.162 1.881-2.218-.171-4.96-1.029-6.145-3.026-1.186-1.997-.56-4.706 1.645-5.829 3.053-1.541 8.226 1.355 10.244 3.506.152.169 2.083 2.805 2.411 3.348-.037-.169-.061-.35-.108-.497a49.982 49.982 0 0 0-3.047-8.497 44.013 44.013 0 0 0-2.187-4.251c-.975.477-5.449 2.606-7.78 2.687-2.232.078-5.07-.449-6.47-2.292-1.4-1.842-1.07-4.588 1.007-5.928 2.889-1.864 8.37.422 10.603 2.323.123.101 1.234 1.296 2.034 2.178-.346-.603-.695-1.231-1.035-1.8-1.283-2.165-2.596-4.022-3.77-5.675a127.352 127.352 0 0 0-1.905-2.531c-1.17-.029-5.893-.197-7.91-1.195-2.017-.997-4.18-2.766-4.54-5.123-.36-2.358 1.16-4.677 3.574-4.926 3.328-.349 7.04 4.308 8.11 7.069.093.243 1.099 4.177 1.038 4.179l-.066-.014a90.378 90.378 0 0 1 1.88 2.393c1.212 1.628 2.569 3.476 3.904 5.599a66.414 66.414 0 0 1 3.979 7.071 49.689 49.689 0 0 1 3.271 8.525l.024.109c.034-.994.228-3.773.267-3.988.545-3.001 3.324-8.566 6.645-9.168 2.395-.453 4.296 1.46 4.36 3.799.064 2.339-1.745 4.722-3.505 6.217-1.967 1.695-7.258 3.312-7.68 3.443a69.776 69.776 0 0 1 1.704 9.224c.221 1.817.389 3.66.533 5.508.061-.861.118-1.633.139-1.737.545-3.001 3.324-8.566 6.645-9.168 2.395-.453 4.296 1.46 4.36 3.799.064 2.339-1.757 4.771-3.518 6.267-1.76 1.495-6.252 2.975-7.452 3.366.05.713.111 1.419.153 2.13.216 3.405.418 6.808.732 10.119.103 1.17.25 2.316.395 3.466.05-.763.102-1.402.118-1.503.545-3.001 3.324-8.566 6.645-9.168 2.39-.43 4.297 1.46 4.36 3.799.064 2.339-1.757 4.79-3.517 6.286-1.76 1.495-5.802 2.854-7.236 3.297.172 1.171.345 2.341.594 3.446.173.762.288 1.512.503 2.269.215.756.395 1.506.59 2.234.429 1.404.861 2.856 1.312 4.212.307.946.618 1.841.926 2.745-.118-1.168-.306-3.452-.299-3.65a16.442 16.442 0 0 1 2.463-7.558c.007-.298.042-.595.105-.889.489-2.31 2.724-4.02 5.006-3.381 3.183.888 4.92 6.655 4.911 9.681.002.176-.217 2.124-.368 3.351.203-.708.39-1.405.603-2.135.419-1.446.873-2.885 1.359-4.431l.791-2.237c.265-.752.604-1.522.901-2.291a91.8 91.8 0 0 1 2.433-5.291c-1.234-.308-5.599-1.474-7.3-2.867-1.702-1.392-3.452-3.654-3.308-6.044.144-2.391 2.116-4.37 4.492-4.09 3.304.381 5.904 5.771 6.348 8.74.028.186.108 2.367.131 3.563.53-1.053 1.055-2.107 1.624-3.152 1.651-3.032 3.408-6.047 5.148-9.066.534-.923 1.056-1.85 1.583-2.78-.441-.091-5.679-1.377-7.57-2.937-1.694-1.386-3.452-3.65-3.308-6.045.145-2.395 2.115-4.364 4.497-4.089 3.299.385 5.899 5.771 6.343 8.744.033.22.145 3.353.134 4.162 1.155-2.043 2.292-4.086 3.329-6.14a74.409 74.409 0 0 0 3.719-8.536c-.207-.043-5.684-1.354-7.604-2.949-1.698-1.387-3.452-3.649-3.307-6.044.145-2.396 2.11-4.366 4.492-4.09 3.303.386 5.899 5.77 6.342 8.743.04.232.157 3.607.134 4.224.042-.172.14-.341.2-.509a53.985 53.985 0 0 0 2.178-9.041 60.89 60.89 0 0 0 .581-4.882c-1.046-.137-5.82-.809-7.741-2.043-1.847-1.18-3.832-3.22-3.959-5.605-.126-2.385 1.639-4.554 4.045-4.544 3.345.011 6.523 5.046 7.293 7.935.04.156.288 1.807.451 3.017.048-.716.115-1.452.15-2.133.131-2.564.098-4.916.049-6.995a96.065 96.065 0 0 0-.153-3.25c-.936-.669-4.651-3.466-5.731-5.461-1.079-1.994-1.859-4.733-.872-6.958.988-2.226 3.471-3.334 5.554-2.209 2.887 1.577 3.341 7.647 2.692 10.635-.062.253-1.391 4.211-1.438 4.178l-.06-.041c.08.966.157 1.983.215 3.111.091 2.078.175 4.431.113 7.014a72.802 72.802 0 0 1-.637 8.317 54.582 54.582 0 0 1-2.011 9.175l-.027.108c.572-.83 2.243-3.123 2.393-3.3 2.075-2.28 7.351-5.514 10.357-4.174 2.164.966 2.671 3.663 1.449 5.716-1.223 2.053-4.015 3.116-6.255 3.449-2.509.353-7.664-1.215-8.072-1.342a75.356 75.356 0 0 1-3.653 8.906 138.97 138.97 0 0 1-2.57 5.039c.518-.709.985-1.338 1.056-1.419 2.075-2.279 7.351-5.518 10.356-4.174 2.169.968 2.672 3.663 1.45 5.712-1.221 2.049-4.015 3.121-6.254 3.449-2.24.328-6.683-.912-7.849-1.272-.344.641-.688 1.281-1.035 1.916-1.685 3.059-3.366 6.104-4.943 9.137-.552 1.067-1.062 2.153-1.568 3.206a42.31 42.31 0 0 1 .917-1.234c2.075-2.279 7.35-5.514 10.357-4.174 2.163.967 2.671 3.663 1.448 5.717-1.222 2.053-4.014 3.116-6.254 3.449-2.241.332-6.247-.822-7.636-1.214-.494 1.112-.988 2.225-1.416 3.318-.275.755-.594 1.462-.828 2.235-.233.773-.499 1.51-.743 2.252-.42 1.451-.864 2.939-1.239 4.361-.247.993-.507 1.931-.748 2.883.539-1.07 1.637-3.145 1.746-3.307 1.727-2.556 6.499-6.54 9.691-5.688 2.302.615 3.206 3.185 2.295 5.383-.911 2.199-3.541 3.675-5.704 4.328-2.386.715-7.549.024-8.193-.067a75.423 75.423 0 0 0-1.099 4.523Z" fill="#EEEFF5"/>
    <path d="M95.398 148.131c-.054.031-.862-3.964-.874-4.212-.252-2.99 1.005-9.01 4.075-10.465 2.21-1.049 4.544.237 5.224 2.441.68 2.204-.483 4.994-1.787 6.883-1.531 2.212-6.632 5.349-6.638 5.353Zm-7.548-14.059c-.051.029-.82-3.769-.831-4.005-.24-2.843.955-8.567 3.874-9.951 2.102-.997 4.321.226 4.968 2.321.646 2.096-.46 4.748-1.7 6.545-1.456 2.103-6.306 5.086-6.311 5.09Z" fill="#EEEFF5"/>
    <g clip-path="url(#a)" stroke="#373745" stroke-miterlimit="10">
        <path d="m183.762 117.19-28.602 1.872-1.069 121.672s2.138 1.871 19.775 2.129c17.637.257 21.395-1.855 21.395-1.855L183.762 117.19Z" fill="#F1F5FF"/>
        <path d="M168.263 58.596s9.285 7.737 9.567 9.208c.185 1.471.279 2.953.282 4.435 0 0 9.371 5.638 8.833 6.436l-3.179 4.562s1.991 7.059 2.281 8.155c.29 1.095 2.586 3.44 2.401 4.696a11.835 11.835 0 0 1-1.406 3.92c-.662.936-6.861 2.438-6.861 2.438l2.461 9.776s2.708 5.859 2.312 8.271c-.397 2.412-2.733 4.835-9.639 7.037-6.905 2.202-10.951.725-13.449-.431-2.499-1.156-6.342-16.765-7.112-19.137-.77-2.373-2.082-6.929-3.955-8.621-1.874-1.692-14.394-13.978-16.819-17.213-2.424-3.234-3.524-6.923-1.596-10.89 1.928-3.968 5.043-6.347 4.948-8.258-.095-1.91-.953-3.602 1.474-5.144a15.853 15.853 0 0 1 5.822-1.918s3.465-7.46 6.304-7.441l2.857.014s6.829-3.975 11.557-1.736c4.728 2.24 6.861 7.202 2.917 11.84Z" fill="#fff"/>
        <path d="M176.369 74.6c.747 1.394 1.782 2.303 2.329 2.012.548-.291.365-1.653-.382-3.047-.747-1.393-1.805-2.31-2.338-2.026-.532.283-.364 1.653.391 3.061Zm-39.121-11.598c-.129-1.901-.953-3.602 1.474-5.145a15.853 15.853 0 0 1 5.822-1.917s3.465-7.46 6.304-7.441l2.857.014s6.828-3.975 11.557-1.736c4.728 2.24 6.944 7.18 3.001 11.818 0 0-12.956 4.943-10.652 6.913 2.304 1.97 3.563 3.7 2.417 4.692-1.146.993-6.385 5.652-5.403 6.939.982 1.287 2.601 4.981 1.833 5.449-.767.468-.799-.057-3.909-1.3-3.11-1.244-5.696.979-5.041 4.873a6.503 6.503 0 0 0 1.982 3.703 6.547 6.547 0 0 0 3.841 1.729c1.395-.118 1.917 4.823-.152 7.248a8.73 8.73 0 0 1-1.621 1.419 6.74 6.74 0 0 0-.862-1.034c-1.874-1.693-14.394-13.979-16.818-17.213-2.424-3.235-3.525-6.923-1.597-10.89 1.929-3.969 5.078-6.215 4.967-8.12Z" fill="#373745"/>
        <path d="M183.591 87.416s-4.924 2.877-9.345.278m2.114-19.832s-4.634.145-4.975 4.208" stroke-linecap="round"/>
        <path d="m182.7 112.233 16.993-.348s9.174-2.462 12.036-1.995c2.862.467 43.731 9.403 48.271 11.455 4.54 2.052 4.587 10.824 3.789 14.517-.271 1.287-1.056 2.487-2.238 3.42-1.182.933-2.697 1.55-4.322 1.76-1.934.327-42.39 1.529-42.39 1.529l17.171 82.588-21.213 7.294-15.247 2.781-16.058-103.377 3.208-19.624Z" fill="#8FA43B"/>
        <path d="m182.004 110.426 4.896 6.472s.569 9.735-.759 13.735a53.226 53.226 0 0 1-3.448 7.829l-6.137-14.13a42.054 42.054 0 0 0 5.448-13.906ZM158.28 142.05l1.724 112.607s-16.861-1.888-22.413-4.206a102.97 102.97 0 0 1-9.275-4.412s5.482-41.204 5.689-44.501c.207-3.296.207-6.095.207-6.095s-12.43 4.413-17.068 2.953c-4.638-1.459-5.276-6.3-4.845-12.395a81.33 81.33 0 0 0 .104-10.13c0-1.047 1.258-18.438 6.327-31.452 5.069-13.014 2-13.426 5.586-15.726 3.586-2.301 29.723-11.554 29.723-11.554l2.948 6.094 1.293 18.817Z" fill="#8FA43B"/>
        <path d="M156.326 112.001s2.168 6.129 3.484 9.286a134.272 134.272 0 0 0 2.288 5.21l-4.486 15.599a106.881 106.881 0 0 1-4.113-17.787c-.673-7.064-1.271-5.979-1.271-5.979s2.931-7.632 4.098-6.329Z" fill="#8FA43B"/>
        <path d="M205.082 82.7a23.774 23.774 0 0 1-5.043-1.535c-1.365-.79-4.278-4.102-5.208-4.752-.931-.65-4.904 1.134-5.767-.574-.864-1.707-1.546-3.487.99-3.246 2.493.115 4.996.068 7.489-.142l-5.268-11.146 17.981-2.075s7.082 15.464 7.234 16.77a25.285 25.285 0 0 1-.319 4.443s27.5 22.092 33.438 27.724c5.937 5.631 13.396 13.393 14.407 16.529 1.011 3.136.302 13.544-3.912 15.373-4.215 1.828-8.366.776-13.401-2.653-5.036-3.43-21.784-27.347-22.514-28.227-.729-.88-14.128-23.445-14.851-24.102a34.86 34.86 0 0 0-5.256-2.388Zm-46.94 65.668 5.689 50.286-32.446-3.829-8.466-50.114 35.223 3.657Z" fill="#fff"/>
        <path d="m153.97 148.625 10.327 49.548-32.688-.841-13.068-49.119 35.429.412Z" fill="#fff"/>
        <path d="M122.334 177.194c3.56 1.911 7.22 3.631 10.965 5.15a13.053 13.053 0 0 0 10.552-.412 14.642 14.642 0 0 0 4.844-3.571s1.052-5.665 2.31-6.507c1.259-.841 4.224-1.476 5.483-3.433 1.258-1.958 1.896-1.717 2.327.206.431 1.923.845 4-.431 4.841a3.437 3.437 0 0 0-1.465 2.095s.207 1.476 1.896.841c1.69-.635 2.742-2.73 4.431-2.095a2.39 2.39 0 0 1 1.743 1.279 2.366 2.366 0 0 1-.019 2.155 18.268 18.268 0 0 1-1.724 2.936s2.104 4.841 1.052 7.983c-1.052 3.142-6.327 5.048-8.862 5.254-2.534.206-9.689.412-9.689.412s-10.344 3.433-16.654 5.253c-6.31 1.82-8.224 1.477-11.81-1.253a11.195 11.195 0 0 1-3.881-5.596 11.152 11.152 0 0 1 .088-6.8c1.465-4.961 3.155-7.691 8.844-8.738Zm63.503-111.18 11.36-5.845 3.985 9.114-12.034 4.302c-.553.24-1.748-1.246-2.664-3.34-.915-2.093-1.121-4.026-.647-4.231Z" fill="#fff"/>
        <path d="m182.552 67.232 3.683-1.597a.748.748 0 0 1 .299-.061c.101 0 .196.023.278.066a.444.444 0 0 1 .251.426 8.917 8.917 0 0 0 .86 3.471 8.799 8.799 0 0 0 1.961 2.979.446.446 0 0 1 .142.474.614.614 0 0 1-.141.247.74.74 0 0 1-.248.177l-3.683 1.597c-.696.302-2.028-1.197-2.974-3.36-.946-2.164-1.123-4.117-.428-4.419Zm10.625-7.267 24.851-12.276 6.525 14.922-25.945 9.774c-.917.397-2.799-2.1-4.292-5.517-1.494-3.415-2.103-6.484-1.139-6.902Z" fill="#fff"/>
        <path d="M219.299 56.014c1.796 4.108 4.164 7.07 5.254 6.597 1.091-.473.526-4.217-1.271-8.325-1.796-4.108-4.148-7.077-5.254-6.597-1.107.48-.533 4.2 1.271 8.325Z" fill="#fff"/>
        <path d="m181.461 68.088 11.384-5.788 3.695 8.449-12.01 4.358c-.553.24-1.694-1.122-2.543-3.063-.849-1.941-1.08-3.716-.526-3.956Z" fill="#373745"/>
        <path d="m177.788 68.42 3.683-1.598a.637.637 0 0 1 .888.57 12.873 12.873 0 0 0 1.17 4.136 12.703 12.703 0 0 0 2.238 3.655.642.642 0 0 1 .183.567.64.64 0 0 1-.37.469l-3.683 1.597c-.695.302-2.187-1.56-3.329-4.174-1.143-2.612-1.507-4.908-.78-5.223Z" fill="#fff"/>
        <path d="m188.735 61.892 24.851-12.277 6.525 14.922-25.945 9.774c-.901.39-2.799-2.1-4.292-5.516-1.494-3.416-2.04-6.512-1.139-6.903Z" fill="#373745"/>
        <path d="M214.858 57.94c1.797 4.108 4.164 7.07 5.255 6.597 1.091-.473.525-4.217-1.271-8.325-1.797-4.108-4.148-7.077-5.255-6.597-1.106.48-.532 4.201 1.271 8.325Zm-8.822-4.649s-4.892-1.885-6.085-1.306c-1.194.579-1.59 4.59-1.757 5.111-.168.52.336 1.002 1.698.494a5.385 5.385 0 0 0 2.276-2.288l3.868-2.01Z" fill="#fff"/>
        <path d="M199.95 51.985a25.598 25.598 0 0 0-5.338 1.711c-.848.698-.66 5.59-.009 6.02.651.429 3.59-2.62 3.59-2.62s.627-4.716 1.757-5.111Z" fill="#fff"/>
        <path d="M193.95 54.457s-2.488-.263-3.026 1.029c-.537 1.292-1.179 5.117-.177 5.949 1.001.832 3.857-1.719 3.857-1.719s-1.286-4.513-.654-5.259Z" fill="#fff"/>
        <path d="M190.325 56.655s-2.847.216-3.224 1.564c-.376 1.347-1.05 5.34.715 5.382 1.765.041 2.157-2.804 2.157-2.804l.352-4.142Z" fill="#fff"/>
    </g>
    <path d="M60.5 221h240" stroke="#67676F" stroke-miterlimit="10" stroke-linecap="round"/>
    <defs>
        <clipPath id="a">
            <path fill="#fff" d="M112.187 41.532h160v179.2h-160z"/>
        </clipPath>
    </defs>
</svg>
