<?xml version="1.0" standalone="no"?>
<!DOCTYPE svg PUBLIC "-//W3C//DTD SVG 20010904//EN"
 "http://www.w3.org/TR/2001/REC-SVG-20010904/DTD/svg10.dtd">
<svg version="1.0" xmlns="http://www.w3.org/2000/svg"
 width="225.000000pt" height="225.000000pt" viewBox="0 0 225.000000 225.000000"
 preserveAspectRatio="xMidYMid meet">
<metadata>
Created by potrace 1.14, written by Peter Selinger 2001-2017
</metadata>
<g transform="translate(0.000000,225.000000) scale(0.100000,-0.100000)"
fill="#000000" stroke="none">
<path d="M715 1774 c-226 -124 -446 -244 -489 -267 -92 -49 -124 -88 -133
-165 -8 -71 3 -117 39 -158 l31 -35 -21 -22 c-68 -72 -68 -212 0 -284 l21 -22
-26 -30 c-77 -92 -53 -258 45 -304 31 -14 1025 -237 1058 -237 8 0 218 114
465 253 347 195 451 258 453 274 2 12 -4 23 -13 27 -11 4 -169 -79 -463 -245
l-445 -250 -504 110 c-277 61 -513 116 -524 122 -82 43 -74 213 11 242 18 7
157 -20 525 -102 l500 -110 438 246 c241 135 448 254 460 263 23 19 18 50 -9
50 -10 0 -211 -109 -447 -242 -236 -133 -439 -243 -451 -245 -28 -5 -982 203
-1023 223 -87 44 -81 196 8 245 11 5 101 -10 265 -46 137 -31 255 -53 262 -50
14 5 17 41 4 49 -5 3 -123 30 -263 61 -140 30 -264 59 -277 65 -80 35 -80 204
0 241 18 8 130 -13 513 -96 270 -58 500 -105 512 -105 22 0 882 477 913 506
37 35 7 44 -495 155 -270 60 -499 108 -510 108 -11 0 -204 -101 -430 -225z
m672 -44 c84 -19 152 -35 150 -36 -1 -1 -44 -26 -95 -56 l-94 -54 -163 35
c-91 20 -161 39 -157 43 17 17 188 108 197 104 6 -2 79 -18 162 -36z"/>
<path d="M1800 1279 c-173 -99 -371 -211 -440 -249 l-125 -69 -109 24 c-82 19
-112 22 -122 14 -36 -29 -8 -46 122 -75 l121 -27 454 256 c395 222 454 259
454 279 0 16 -6 24 -20 25 -11 1 -162 -79 -335 -178z"/>
</g>
</svg>
